# xmcd
#
# Track frame offsets:
#	150
#	20220
#	46392
#	64352
#	111882
#	139795
#	156347
#	180247
#	201617
#
# Disc length: 3496 seconds
#
# Revision: 0
# Processed by: cddbd v1.4PL0 Copyright (c) Steve Scherf et al.
# Submitted via: dBpowerAMP V4.0
#
DISCID=870da609
DTITLE=George Benson - Forever Gold
DYEAR=1900
DGENRE=Blues
TTITLE0=All Blues
TTITLE1=Love For Sale
TTITLE2=There Will Never Be Another You
TTITLE3=Blue Bossa
TTITLE4=Oleo
TTITLE5=Li'l Darlin'
TTITLE6=The Masquerade Is Over
TTITLE7=Witchcraft
TTITLE8=Dahlia's Delight
EXTD=Skip
EXTT0=
EXTT1=
EXTT2=
EXTT3=
EXTT4=
EXTT5=
EXTT6=
EXTT7=
EXTT8=
PLAYORDER=
